<?xml version="1.0" encoding="UTF-8"?>
<svg width="16px" height="16px" viewBox="0 0 16 16" version="1.1" xmlns="http://www.w3.org/2000/svg" xmlns:xlink="http://www.w3.org/1999/xlink">
    <title>形状</title>
    <g id="白" stroke="none" stroke-width="1" fill="none" fill-rule="evenodd">
        <g id="-Voting新增单个节点主页-w" transform="translate(-523.000000, -237.000000)" fill="#6979F8" fill-rule="nonzero">
            <g id="编组-3" transform="translate(300.000000, 160.000000)">
                <g id="形状-2" transform="translate(223.000000, 76.999986)">
                    <path d="M7.99812746,9.17971192e-07 C5.8768809,9.17971192e-07 3.84253001,0.842856873 2.342588,2.34314305 C0.842656038,3.84342924 0,5.87826055 0,7.99998796 C0,8.25713051 0,8.50855767 0.0399983196,8.75998483 C0.187207802,10.3030009 0.779399845,11.7700192 1.74457145,12.9826071 C2.70974305,14.1952954 4.0063293,15.1014216 5.4767069,15.590796 C6.94709454,16.0801704 8.52795707,16.1317998 10.0270656,15.7392556 C11.5262745,15.3468119 12.8790673,14.52717 13.921253,13.3799727 C14.9634387,12.2328758 15.6499275,10.8076431 15.8973688,9.27744405 C16.1448101,7.74735544 15.942559,6.17827359 15.3151186,4.76098619 C14.6877786,3.3436988 13.6621627,2.13923704 12.3631964,1.29403157 C11.0642301,0.448816042 9.54774853,-0.000741464478 7.99812746,9.17971192e-07 L7.99812746,9.17971192e-07 Z M7.97587191,1.11020494 C9.77837212,1.11178623 11.5074215,1.8329497 12.7871486,3.1169643 L12.7871486,3.69362139 C10.5340233,2.90925666 8.08479551,2.9194236 5.8381235,3.72244968 C5.65864506,3.54552668 5.43335257,3.42358422 5.18825944,3.3706918 L5.04574689,3.3706918 C4.97733646,3.12849968 4.91462773,2.88629741 4.86332241,2.6383376 C4.81201708,2.39037779 4.78351858,2.17124627 4.75502008,1.93482183 C5.74463157,1.3945853 6.85132341,1.111249 7.97587191,1.11020494 L7.97587191,1.11020494 Z M6.29646983,4.48593414 C8.36495505,3.79168575 10.6067594,3.81783647 12.6586345,4.5601516 C12.3810997,6.01050295 11.7750687,7.37764565 10.8872978,8.55623423 C10.6388981,8.45082858 10.3639665,8.42553082 10.1006488,8.48383307 C9.83733119,8.54214536 9.59864326,8.68117767 9.41772501,8.88163306 C9.21838455,8.76745698 9.01904408,8.6532809 8.84813792,8.52198542 C7.69837095,7.75307804 6.73814262,6.73210623 6.04016064,5.53633805 C6.15297673,5.3961417 6.23510581,5.23372828 6.28122144,5.0596544 C6.32733706,4.8855705 6.33641802,4.70371965 6.30786357,4.52590279 L6.29646983,4.48593414 Z M3.99501312,2.41632731 C3.99501312,2.5370853 4.02932879,2.66359463 4.05220255,2.78434252 C4.10368108,3.03735108 4.17232247,3.2846184 4.24096386,3.53187562 C4.02192875,3.66226635 3.84564496,3.85424396 3.73384003,4.08414607 C3.62203511,4.31404817 3.57960554,4.57181751 3.61177962,4.82567513 C2.70890456,5.41839703 1.90244114,6.14768553 1.22088353,6.98775562 C1.35764348,6.07793154 1.67403534,5.20479881 2.1514283,4.41972531 C2.62882126,3.63465181 3.25759327,2.95348659 4.00072402,2.41632731 L3.99501312,2.41632731 Z M3.97787802,11.4036985 C3.75538386,11.4784415 3.55653372,11.6107716 3.401425,11.7871449 C3.24630626,11.9635182 3.14041916,12.1777144 3.0944536,12.4081635 L2.72968461,12.4081635 C1.80925131,11.3088904 1.25875661,9.94666255 1.15662651,8.51571135 L1.21931319,8.40726887 C1.9330217,7.29908681 2.86604844,6.3492093 3.96077618,5.61632713 C4.12490169,5.78798509 4.33231777,5.91201825 4.56107358,5.97531399 C4.78981937,6.03860972 5.03140907,6.03881038 5.26026507,5.97590591 C6.02260409,7.26596916 7.06468383,8.3680213 8.30948091,9.20063765 C8.54321599,9.35473855 8.78256151,9.49740226 9.02190703,9.63434739 C9.00277141,9.85265699 9.03803705,10.0722708 9.12449799,10.2736253 C8.08145646,11.1030212 6.87837704,11.7073856 5.59083038,12.0485947 C5.44152246,11.7692869 5.19788896,11.5521812 4.90345089,11.4361039 C4.60902284,11.3200266 4.28297593,11.3126024 3.98356861,11.4151357 L3.97787802,11.4036985 Z M7.99936257,14.8782777 C6.84118707,14.8785808 5.70221089,14.5798659 4.69076305,14.0105196 L4.85021351,13.976072 C5.07682155,13.9010144 5.27931533,13.7659513 5.43658359,13.5850252 C5.59384184,13.4040992 5.70009877,13.1838765 5.74427322,12.9472887 C7.20037853,12.5726072 8.55972647,11.8866843 9.73050465,10.9358882 C10.0085845,11.0999439 10.337015,11.1542925 10.6524324,11.0885287 C10.9678498,11.022664 11.2480318,10.8414349 11.4389239,10.5795921 C12.2423324,10.79042 13.0688641,10.8985109 13.8989995,10.9014405 L14.2008032,10.9014405 C13.6513503,12.0936734 12.7757692,13.1025558 11.6769634,13.8091877 C10.5782578,14.5158195 9.30227372,14.8908041 7.99936257,14.889796 L7.99936257,14.8782777 Z M11.6914695,9.78990452 C11.6909648,9.55041502 11.6254558,9.31544609 11.502008,9.1098106 C12.4576935,7.86748896 13.1226761,6.42856292 13.4486064,4.89795982 C13.7357763,5.03130645 14.0190097,5.1798924 14.2985083,5.34371769 C14.9300803,6.8289745 15.0154742,8.48823288 14.5396503,10.0298963 C13.5862865,10.1033304 12.6272701,10.0280881 11.697223,9.80708267 L11.6914695,9.78990452 Z" id="形状"></path>
                </g>
            </g>
        </g>
    </g>
</svg>