<?xml version="1.0" encoding="UTF-8"?>
<svg width="12px" height="12px" viewBox="0 0 12 12" version="1.1" xmlns="http://www.w3.org/2000/svg" xmlns:xlink="http://www.w3.org/1999/xlink">
    <title>形状结合 4</title>
    <g id="黑" stroke="none" stroke-width="1" fill="none" fill-rule="evenodd">
        <g id="REI-DAO-CROSS-BRIDGE-b-管理员2" transform="translate(-1246.000000, -203.000000)" fill="#5C5A7A">
            <g id="形状结合-4" transform="translate(1246.000000, 203.000000)">
                <path d="M1.65254211,1.79231981 L10.1525421,1.79231981 C10.5667557,1.79231981 10.9025421,2.12810624 10.9025421,2.54231981 C10.9025421,2.95653337 10.5667557,3.29231981 10.1525421,3.29231981 L1.65254211,3.29231981 C1.23832855,3.29231981 0.902542112,2.95653337 0.902542112,2.54231981 C0.902542112,2.12810624 1.23832855,1.79231981 1.65254211,1.79231981 Z M1.65254211,5.29231981 L8.15254211,5.29231981 C8.56675567,5.29231981 8.90254211,5.62810624 8.90254211,6.04231981 C8.90254211,6.45653337 8.56675567,6.79231981 8.15254211,6.79231981 L1.65254211,6.79231981 C1.23832855,6.79231981 0.902542112,6.45653337 0.902542112,6.04231981 C0.902542112,5.62810624 1.23832855,5.29231981 1.65254211,5.29231981 Z M1.65254211,8.79231981 L10.1525421,8.79231981 C10.5667557,8.79231981 10.9025421,9.12810624 10.9025421,9.54231981 C10.9025421,9.95653337 10.5667557,10.2923198 10.1525421,10.2923198 L1.65254211,10.2923198 C1.23832855,10.2923198 0.902542112,9.95653337 0.902542112,9.54231981 C0.902542112,9.12810624 1.23832855,8.79231981 1.65254211,8.79231981 Z" id="形状结合"></path>
            </g>
        </g>
    </g>
</svg>