<svg xmlns="http://www.w3.org/2000/svg" viewBox="0 0 872 179" width="872" height="179">
	<style>
		tspan { white-space:pre }
		.shp0 { fill: #6699FF } 
	</style>
	<path id="Layer" fill-rule="evenodd" class="shp0" d="M169.69 125.1C172.61 128.03 174.92 131.51 176.5 135.33C178.08 139.16 178.89 143.25 178.89 147.39C178.89 151.53 178.08 155.62 176.5 159.45C174.92 163.27 172.61 166.75 169.69 169.68C166.76 172.6 163.28 174.91 159.46 176.49C155.63 178.07 151.54 178.88 147.4 178.88C143.26 178.88 139.17 178.07 135.34 176.49C131.52 174.91 128.04 172.6 125.11 169.68L89.45 134.02L53.78 169.68C50.85 172.6 47.37 174.91 43.55 176.49C39.72 178.07 35.63 178.88 31.49 178.88C27.35 178.88 23.26 178.07 19.43 176.49C15.61 174.91 12.13 172.6 9.2 169.68C6.28 166.75 3.97 163.27 2.39 159.45C0.81 155.62 0 151.53 0 147.39C0 143.25 0.81 139.16 2.39 135.33C3.97 131.51 6.28 128.03 9.2 125.1L40.41 93.9L53.78 107.27L22.58 138.48C21.41 139.65 20.49 141.04 19.85 142.57C19.22 144.1 18.9 145.74 18.9 147.39C18.9 149.05 19.22 150.69 19.85 152.22C20.49 153.75 21.41 155.14 22.58 156.31C23.75 157.48 25.14 158.4 26.67 159.03C28.2 159.66 29.84 159.99 31.5 159.99C33.15 159.99 34.79 159.66 36.32 159.03C37.85 158.4 39.24 157.48 40.41 156.31L76.07 120.65L58.24 102.81L44.87 89.44L9.19 53.78C6.27 50.85 3.96 47.37 2.38 43.55C0.8 39.72 -0.01 35.63 -0.01 31.49C-0.01 27.35 0.8 23.26 2.38 19.43C3.96 15.61 6.27 12.13 9.19 9.2C12.12 6.28 15.6 3.97 19.42 2.39C23.25 0.81 27.34 0 31.48 0C35.62 0 39.71 0.81 43.54 2.39C47.36 3.97 50.84 6.28 53.77 9.2L89.44 44.86L125.1 9.2C128.03 6.28 131.51 3.97 135.33 2.39C139.16 0.81 143.25 0 147.39 0C151.53 0 155.62 0.81 159.45 2.39C163.27 3.97 166.75 6.28 169.68 9.2C172.6 12.13 174.91 15.61 176.49 19.43C178.07 23.26 178.88 27.35 178.88 31.49C178.88 35.63 178.07 39.72 176.49 43.55C174.91 47.37 172.6 50.85 169.68 53.78L134.02 89.44L169.69 125.1ZM58.23 76.11L76.06 58.27L40.4 22.61C39.23 21.44 37.84 20.52 36.31 19.89C34.78 19.26 33.14 18.93 31.49 18.93C29.83 18.93 28.19 19.26 26.66 19.89C25.13 20.52 23.74 21.44 22.57 22.61C21.4 23.78 20.48 25.17 19.84 26.7C19.21 28.23 18.89 29.87 18.89 31.52C18.89 33.18 19.21 34.82 19.84 36.35C20.48 37.88 21.4 39.27 22.57 40.44L58.23 76.11ZM159.02 152.22C159.64 150.7 159.97 149.06 159.97 147.41C159.97 145.77 159.64 144.13 159.02 142.61C158.39 141.08 157.47 139.69 156.31 138.52L93.87 76.07L107.27 62.69L120.64 76.07L156.31 40.4C157.48 39.23 158.4 37.84 159.03 36.31C159.66 34.78 159.99 33.14 159.99 31.49C159.99 29.83 159.66 28.19 159.03 26.66C158.4 25.13 157.48 23.74 156.31 22.57C155.14 21.4 153.74 20.48 152.21 19.85C150.68 19.22 149.04 18.89 147.39 18.89C145.74 18.89 144.1 19.22 142.57 19.85C141.04 20.48 139.64 21.4 138.47 22.57L71.6 89.44L89.44 107.27L102.81 93.9L116.18 107.27L102.81 120.65L138.47 156.31C139.64 157.48 141.04 158.4 142.57 159.03C144.1 159.66 145.74 159.99 147.39 159.99C149.04 159.99 150.68 159.66 152.21 159.03C153.74 158.4 155.14 157.48 156.31 156.31C157.47 155.14 158.39 153.75 159.02 152.22Z" />
	<path id="Layer" class="shp0" d="M311.87 34.75C320.01 41.83 325.08 52.4 327.09 66.45L309.67 66.45C308.08 57.95 304.59 51.57 299.21 47.32C293.92 42.96 286.74 40.78 277.65 40.77C266.66 40.77 257.94 44.96 251.49 53.35C244.62 62.09 241.18 74.31 241.19 90.01C241.19 105.34 244.31 117.03 250.54 125.07C257.21 133.93 267.62 138.36 281.77 138.36C283.1 138.35 284.42 138.3 285.74 138.2C287.07 138.1 288.38 137.96 289.7 137.77C291.01 137.57 292.31 137.34 293.61 137.05C294.9 136.77 296.19 136.44 297.46 136.06C298.59 135.72 299.71 135.34 300.81 134.91C301.91 134.48 303 134.01 304.06 133.49C305.12 132.97 306.16 132.4 307.17 131.8C308.19 131.19 309.18 130.55 310.14 129.86L310.14 102.41L278.92 102.41L278.92 85.93L327.42 85.93L327.42 139.07C325.93 140.38 324.38 141.61 322.76 142.76C321.15 143.92 319.49 145 317.77 145.99C316.06 146.99 314.3 147.9 312.5 148.72C310.69 149.55 308.85 150.28 306.98 150.93C304.8 151.66 302.59 152.29 300.36 152.84C298.13 153.38 295.87 153.83 293.6 154.19C291.33 154.54 289.05 154.8 286.76 154.97C284.47 155.13 282.17 155.21 279.87 155.18C261.87 155.18 247.87 148.81 237.87 136.06C228.54 124.25 223.89 108.92 223.92 90.06C223.89 71.03 228.54 55.43 237.87 43.25C247.59 30.26 260.85 23.76 277.66 23.77C292.23 23.77 303.64 27.43 311.87 34.75Z" />
	<path id="Layer" class="shp0" d="M575.16 23.77L593.43 23.77L593.43 74.07C594.82 71.68 596.53 69.49 598.5 67.55C600.48 65.61 602.7 63.94 605.12 62.6C607.54 61.25 610.12 60.23 612.81 59.56C615.49 58.9 618.25 58.59 621.02 58.66C631.69 58.66 639.79 61.91 645.33 68.4C650.5 74.54 653.08 83.69 653.08 95.85L653.08 152.7L634.81 152.7L634.81 99.04C634.81 91.13 633.2 84.99 629.98 80.62C626.53 76.25 621.3 74.06 614.29 74.07C612.83 74.04 611.37 74.19 609.95 74.51C608.52 74.84 607.14 75.34 605.84 76C604.54 76.66 603.32 77.48 602.21 78.44C601.11 79.39 600.13 80.48 599.29 81.68C595.39 86.76 593.44 93.31 593.43 101.34L593.43 152.7L575.16 152.7L575.16 23.77Z" />
	<path id="Layer" fill-rule="evenodd" class="shp0" d="M737.05 68.75C742.33 74.66 744.97 83.16 744.97 94.26L744.97 152.7L728.46 152.7L728.46 139.77C727.61 140.92 726.71 142.02 725.74 143.07C724.77 144.12 723.75 145.12 722.67 146.05C721.6 146.99 720.47 147.87 719.3 148.68C718.13 149.5 716.91 150.25 715.66 150.93C714.1 151.66 712.51 152.31 710.88 152.86C709.25 153.4 707.59 153.86 705.91 154.22C704.22 154.57 702.52 154.83 700.81 154.99C699.1 155.16 697.38 155.22 695.66 155.18C686.67 155.18 679.54 152.76 674.27 147.92C668.88 142.96 666.19 136.41 666.18 128.26C666.18 116.69 670.51 108.13 679.18 102.58C686.43 97.87 695.95 95.52 707.74 95.52L727.28 95.34L727.28 93.04C727.28 80.29 720.71 73.92 707.58 73.91C701.4 73.91 696.68 75.09 693.43 77.45C689.5 80.17 687.2 84.17 686.52 89.45L668.87 89.45C670.2 78.58 674.58 70.55 682 65.36C688.29 60.87 697.22 58.62 708.79 58.63C721.57 58.65 730.99 62.02 737.05 68.75ZM727.28 109.67L708.92 109.84C692.64 109.84 684.5 115.8 684.5 127.73C684.48 128.57 684.55 129.42 684.71 130.24C684.87 131.07 685.11 131.88 685.45 132.65C685.78 133.43 686.2 134.17 686.69 134.85C687.18 135.54 687.74 136.17 688.37 136.73C690.96 139.1 694.72 140.29 699.66 140.28C707.66 140.28 714.33 137.92 719.66 133.19C724.72 128.35 727.25 122.09 727.24 114.42L727.28 109.67Z" />
	<path id="Layer" class="shp0" d="M776.97 28.02C777.58 28.59 778.12 29.23 778.6 29.92C779.07 30.61 779.47 31.35 779.78 32.12C780.1 32.9 780.33 33.7 780.47 34.52C780.61 35.35 780.67 36.18 780.63 37.02C780.64 37.87 780.56 38.73 780.4 39.57C780.23 40.41 779.98 41.23 779.66 42.02C779.33 42.81 778.92 43.56 778.44 44.27C777.96 44.98 777.41 45.63 776.8 46.23C775.58 47.36 774.16 48.25 772.61 48.85C771.06 49.46 769.41 49.77 767.75 49.77C766.09 49.77 764.44 49.46 762.89 48.85C761.34 48.25 759.92 47.36 758.7 46.23C758.1 45.63 757.57 44.97 757.1 44.25C756.63 43.54 756.24 42.79 755.93 42C755.61 41.21 755.38 40.39 755.23 39.55C755.08 38.72 755.02 37.87 755.04 37.02C755 36.18 755.06 35.35 755.2 34.52C755.34 33.7 755.57 32.9 755.89 32.12C756.2 31.35 756.6 30.61 757.07 29.92C757.55 29.23 758.09 28.59 758.7 28.02C759.29 27.43 759.93 26.91 760.63 26.45C761.32 26 762.06 25.62 762.83 25.31C763.6 25.01 764.41 24.79 765.22 24.65C766.04 24.51 766.87 24.45 767.7 24.48C768.55 24.44 769.4 24.48 770.24 24.62C771.09 24.75 771.91 24.97 772.71 25.28C773.5 25.58 774.26 25.97 774.98 26.43C775.7 26.89 776.36 27.42 776.97 28.02ZM758.52 61.14L776.97 61.14L776.97 152.7L758.52 152.7L758.52 61.14Z" />
	<path id="Layer" class="shp0" d="M871.74 96.21L871.74 152.7L853.87 152.7L853.87 97.8C853.87 82.21 847.06 74.42 833.43 74.42C832.18 74.39 830.94 74.5 829.71 74.74C828.49 74.97 827.29 75.34 826.15 75.82C825 76.31 823.91 76.92 822.89 77.64C821.87 78.35 820.93 79.18 820.08 80.09C815.91 84.46 813.49 90.31 812.82 97.62L812.82 152.7L794.87 152.7L794.87 61.14L812.78 61.14L812.78 72.52C813.54 71.45 814.35 70.43 815.23 69.46C816.1 68.49 817.03 67.57 818.01 66.71C818.99 65.84 820.02 65.04 821.09 64.29C822.16 63.55 823.28 62.87 824.43 62.25C825.55 61.64 826.71 61.11 827.9 60.65C829.09 60.19 830.31 59.82 831.55 59.52C832.79 59.22 834.05 59 835.31 58.87C836.58 58.73 837.86 58.68 839.13 58.71C860.87 58.68 871.74 71.18 871.74 96.21Z" />
	<path id="Layer" class="shp0" d="M344.13 23.81L365.61 23.81L393.72 70.81L421.83 23.81L443.31 23.81L404.22 86.73L446.06 154.03L424.57 154.03L393.72 102.42L362.87 154.03L341.38 154.03L382.87 86.73L344.13 23.81Z" />
	<path id="Layer" class="shp0" d="M544.41 35.01C552.73 42.34 557.79 52.33 559.6 64.96L542.6 64.96C540.68 56.49 537.01 50.28 531.6 46.33C526.27 42.39 519.44 40.42 511.12 40.41C498.75 40.41 489.47 44.99 483.29 54.16C477.43 62.4 474.5 73.83 474.49 88.46C474.49 103.31 477.37 114.85 483.13 123.1C489.21 131.81 498.65 136.16 511.45 136.16C519.87 136.16 526.8 133.9 532.24 129.37C538 124.49 542 117.18 544.24 107.43L561.24 107.43C558.68 121.94 552.71 133.27 543.33 141.43C534.58 149.09 524.03 152.92 511.66 152.92C492.99 152.92 478.91 146.42 469.42 133.42C461.21 122.4 457.1 107.43 457.11 88.51C457.11 69.94 461.37 54.91 469.9 43.42C479.39 30.31 493.26 23.75 511.5 23.75C524.9 23.72 535.87 27.47 544.41 35.01Z" />
</svg>