<?xml version="1.0" encoding="UTF-8"?>
<svg width="12px" height="12px" viewBox="0 0 12 12" version="1.1" xmlns="http://www.w3.org/2000/svg" xmlns:xlink="http://www.w3.org/1999/xlink">
    <title>形状结合 2</title>
    <g id="白" stroke="none" stroke-width="1" fill="none" fill-rule="evenodd">
        <g id="REI-DAO-CROSS-BRIDGE-w-管理员" transform="translate(-1012.000000, -202.000000)" fill="#868E9E" fill-rule="nonzero">
            <g id="形状结合-2" transform="translate(1012.000000, 202.000000)">
                <path d="M7.30900364,11.9999986 L4.6906314,11.9999986 C4.31657822,11.9999986 4.12955163,11.812972 4.12955163,11.4389189 L4.12955163,11.4389189 C4.12955163,11.0648657 4.31657822,10.8778391 4.6906314,10.8778391 L7.30900364,10.8778391 C7.68305682,10.8778391 7.87008341,11.0648657 7.87008341,11.4389189 L7.87008341,11.4389189 C7.87008341,11.812972 7.68305682,11.9999986 7.30900364,11.9999986 Z M10.1830451,1.71945016 C12.5123487,4.01205038 12.5717097,7.74935107 10.3163912,10.1147706 C10.2165699,10.2364681 10.0696645,10.3099208 9.91241376,10.3167593 C9.68750989,10.3166206 9.48442096,10.1821982 9.39641739,9.97522686 C9.30841382,9.7682555 9.35250291,9.5287338 9.50843633,9.36666425 C11.3373782,7.4436102 11.2866438,4.40929458 9.39443455,2.54845894 C7.50222526,0.687623289 4.46748553,0.687623289 2.57527623,2.54845894 C0.683066943,4.40929458 0.632332569,7.4436102 2.46127446,9.36666425 C2.60212945,9.59487371 2.56179826,9.89085506 2.36501945,10.0730577 C2.16824064,10.2552603 1.87003588,10.2727381 1.65331959,10.1147706 C-0.601998929,7.74935107 -0.542637941,4.01205038 1.7866657,1.71945016 C4.11596934,-0.573150054 7.85374143,-0.573150054 10.1830451,1.71945016 Z M6.15176124,3.09605919 L6.22884083,3.13210716 C6.35587705,3.17405496 6.44474277,3.25417327 6.49543798,3.37246208 L6.498,3.379 L8.23317888,5.11512737 C8.47122486,5.35317336 8.49502946,5.59121934 8.30459267,5.82926532 L8.23317888,5.90861398 C7.96868334,6.17310951 7.7041878,6.17310951 7.43969226,5.90861398 L6.545,5.014 L6.54593516,8.52130407 C6.54593516,8.85795193 6.39444362,9.04310826 6.09146054,9.07677305 L5.98485539,9.08238384 C5.61080221,9.08238384 5.42377562,8.89535725 5.42377562,8.52130407 L5.423,5.022 L4.53833845,5.90764676 C4.30029246,6.14569274 4.06224648,6.16949734 3.82420049,5.97906055 L3.74485183,5.90764676 C3.48035629,5.64315122 3.48035629,5.37865568 3.74485183,5.11416014 L5.46731655,3.38955211 C5.52115349,3.25012824 5.62491614,3.16063008 5.7786045,3.12105763 C5.82332319,3.09570192 5.86798611,3.08001902 5.91264903,3.07187793 C5.99239431,3.05631832 6.07207777,3.0641858 6.15176124,3.09605919 Z" id="形状结合"></path>
            </g>
        </g>
    </g>
</svg>