<?xml version="1.0" encoding="UTF-8"?>
<svg width="12px" height="12px" viewBox="0 0 12 12" version="1.1" xmlns="http://www.w3.org/2000/svg" xmlns:xlink="http://www.w3.org/1999/xlink">
    <title>形状结合 3</title>
    <g id="白" stroke="none" stroke-width="1" fill="none" fill-rule="evenodd">
        <g id="REI-DAO-CROSS-BRIDGE-w-管理员" transform="translate(-1149.000000, -203.000000)" stroke="#868E9E">
            <g id="形状结合-3" transform="translate(1149.000000, 203.000000)">
                <path d="M5.97618021,0.508002125 C7.49496327,0.508002125 8.86996327,1.12361059 9.8652675,2.11891483 C10.8605717,3.11421906 11.4761802,4.48921906 11.4761802,6.00800213 C11.4761802,7.52678519 10.8605717,8.90178519 9.8652675,9.89708942 C8.86996327,10.8923937 7.49496327,11.5080021 5.97618021,11.5080021 C4.45739715,11.5080021 3.08239715,10.8923937 2.08709291,9.89708942 C1.09178868,8.90178519 0.476180208,7.52678519 0.476180208,6.00800213 C0.476180208,4.48921906 1.09178868,3.11421906 2.08709291,2.11891483 C3.08239715,1.12361059 4.45739715,0.508002125 5.97618021,0.508002125 Z M6.00883945,3.36576916 L5.9932526,3.36840946 C5.97535609,3.37638121 5.95010505,3.40168286 5.91366952,3.45633413 L5.91366952,3.45633413 L5.91304689,5.79057193 L3.53881358,5.79120523 L3.51436906,5.79611681 L3.51436906,5.79611681 L3.49448603,5.80951108 C3.48317576,5.82082135 3.47618021,5.83644635 3.47618021,5.85370525 C3.47618021,5.86122782 3.47796329,5.86868662 3.48345038,5.87417372 C3.50654732,5.89727066 3.54037192,5.90881892 3.57869793,5.91619456 L3.57869793,5.91619456 L5.91304689,5.9155719 L5.91368019,8.29107195 L5.91859177,8.31551641 L5.91859177,8.31551641 L5.93198603,8.33539942 C5.94329631,8.3467097 5.95892131,8.35370525 5.97618021,8.35370525 C5.98370278,8.35370525 5.99116158,8.35192217 5.99664868,8.34643508 C6.01974562,8.32333813 6.03129389,8.28951352 6.03866952,8.2511875 L6.03866952,8.2511875 L6.03804686,5.9155719 L8.41381351,5.91620527 L8.43802469,5.91129369 L8.43802469,5.91129369 L8.45787438,5.89789942 C8.46918466,5.88658915 8.47618021,5.87096415 8.47618021,5.85370525 C8.47618021,5.84618268 8.47439713,5.83872388 8.46891003,5.83323678 C8.44579077,5.81011752 8.41192311,5.79856927 8.37355136,5.79119457 L8.37355136,5.79119457 L6.03804686,5.79057193 L6.03868023,3.41607188 L6.03376865,3.39186076 L6.03376865,3.39186076 L6.02037438,3.37201108 L6.00883945,3.36576916 Z" id="形状结合"></path>
            </g>
        </g>
    </g>
</svg>