<?xml version="1.0" encoding="UTF-8"?>
<svg width="24px" height="24px" viewBox="0 0 24 24" version="1.1" xmlns="http://www.w3.org/2000/svg" xmlns:xlink="http://www.w3.org/1999/xlink">
    <title>编组</title>
    <g id="页面-1" stroke="none" stroke-width="1" fill="none" fill-rule="evenodd">
        <g id="Validator-验证者详情" transform="translate(-387.000000, -335.000000)">
            <g id="组织-ic" transform="translate(387.000000, 335.000000)">
                <rect id="Rectangle-14" stroke="#979797" fill="#D8D8D8" opacity="0" x="0.5" y="0.5" width="23" height="23"></rect>
                <path d="M9.14285714,3.35338346 L9.14285714,8.76691729 L14.8571429,8.76691729 L14.8571429,3.35338346 L9.14285714,3.35338346 Z M8.66666667,2 L15.3333333,2 C15.8593188,2 16.2857143,2.40395361 16.2857143,2.90225564 L16.2857143,9.21804511 C16.2857143,9.71634714 15.8593188,10.1203008 15.3333333,10.1203008 L8.66666667,10.1203008 C8.14068119,10.1203008 7.71428571,9.71634714 7.71428571,9.21804511 L7.71428571,2.90225564 C7.71428571,2.40395361 8.14068119,2 8.66666667,2 Z" id="Rectangle-5" fill="#858EA0" fill-rule="nonzero"></path>
                <path d="M3.42857143,15.0827068 L3.42857143,20.4962406 L9.14285714,20.4962406 L9.14285714,15.0827068 L3.42857143,15.0827068 Z M2.95238095,13.7293233 L9.61904762,13.7293233 C10.1450331,13.7293233 10.5714286,14.1332769 10.5714286,14.6315789 L10.5714286,20.9473684 C10.5714286,21.4456705 10.1450331,21.8496241 9.61904762,21.8496241 L2.95238095,21.8496241 C2.42639548,21.8496241 2,21.4456705 2,20.9473684 L2,14.6315789 C2,14.1332769 2.42639548,13.7293233 2.95238095,13.7293233 Z" id="Rectangle-5-Copy" fill="#858EA0" fill-rule="nonzero"></path>
                <path d="M14.8571429,15.0827068 L14.8571429,20.4962406 L20.5714286,20.4962406 L20.5714286,15.0827068 L14.8571429,15.0827068 Z M14.3809524,13.7293233 L21.047619,13.7293233 C21.5736045,13.7293233 22,14.1332769 22,14.6315789 L22,20.9473684 C22,21.4456705 21.5736045,21.8496241 21.047619,21.8496241 L14.3809524,21.8496241 C13.8549669,21.8496241 13.4285714,21.4456705 13.4285714,20.9473684 L13.4285714,14.6315789 C13.4285714,14.1332769 13.8549669,13.7293233 14.3809524,13.7293233 Z" id="Rectangle-5-Copy-2" fill="#858EA0" fill-rule="nonzero"></path>
                <path d="M7.23809524,12.3759398 L7.23809524,13.7293233 L16.7619048,13.7293233 L16.7619048,12.3759398 L7.23809524,12.3759398 Z M7.71428571,14.6315789 L7.71428571,15.0827068 L5.80952381,15.0827068 L5.80952381,14.6315789 L7.71428571,14.6315789 Z M17.2380952,11.0225564 C17.7640807,11.0225564 18.1904762,11.42651 18.1904762,11.924812 L18.1895238,13.7285564 L5.80952381,13.7285564 L5.80952381,11.924812 C5.80952381,11.42651 6.23591929,11.0225564 6.76190476,11.0225564 L17.2380952,11.0225564 Z" id="Combined-Shape" fill="#858EA0" fill-rule="nonzero"></path>
            </g>
        </g>
    </g>
</svg>