<?xml version="1.0" encoding="UTF-8"?>
<svg width="16px" height="8px" viewBox="0 0 16 8" version="1.1" xmlns="http://www.w3.org/2000/svg" xmlns:xlink="http://www.w3.org/1999/xlink">
    <title>编组 7</title>
    <defs>
        <linearGradient x1="0.962820471%" y1="47.1796655%" x2="98.8780414%" y2="52.1025917%" id="linearGradient-1">
            <stop stop-color="#522685" offset="0%"></stop>
            <stop stop-color="#EE1E78" offset="40.5598756%"></stop>
            <stop stop-color="#F25B25" offset="57.8991793%"></stop>
            <stop stop-color="#FBB03A" offset="100%"></stop>
        </linearGradient>
        <linearGradient x1="0.220238746%" y1="46.8719157%" x2="100%" y2="52.6195989%" id="linearGradient-2">
            <stop stop-color="#37BEF6" offset="0%"></stop>
            <stop stop-color="#2AACE2" offset="100%"></stop>
        </linearGradient>
    </defs>
    <g id="页面-1" stroke="none" stroke-width="1" fill="none" fill-rule="evenodd">
        <g id="Validator-验证者详情" transform="translate(-371.000000, -776.000000)">
            <g id="编组" transform="translate(367.000000, 369.000000)">
                <g id="编组-7" transform="translate(4.000000, 407.000000)">
                    <path d="M15.3641226,1.62581035 C15.8689221,2.38275665 15.9924932,3.27058788 15.9991382,3.81350486 C16.0022477,4.06755894 16.0022477,4.44639659 15.9020684,4.74755749 C15.5418784,5.83036766 14.3657959,7.1982984 11.2001525,6.1706915 C10.9662827,6.09477448 11.0814024,6.05934654 11.234955,6.03621624 L11.3524732,6.02073384 C11.4483227,6.0090192 11.5288573,5.99935526 11.5182575,5.98485935 C13.4112802,6.13722786 14.3927615,5.41344303 14.4627014,3.81350486 C14.5528055,1.75229192 12.2033969,0.377612861 9.84306844,2.91217992 C9.68257859,3.08451706 9.45944656,3.29753846 9.30041007,3.50721829 C9.20492497,3.63310951 9.08975252,3.79327661 8.95717204,3.90698749 C8.81826164,4.02612738 8.66169071,4.09931903 8.55383483,4.25582841 C8.40366024,4.47374635 8.28433926,4.61854132 8.18937232,4.70673464 C8.13229106,4.79856596 8.08198255,4.87245549 8.03822908,4.92909034 C7.41202369,5.73965548 6.83966658,6.25874468 6.45797799,6.5450485 C5.62441115,7.17030527 4.79009189,7.45936602 3.89636179,7.52139532 C2.52058118,7.61688132 1.26458901,6.84635369 0.635877435,5.90360141 C0.13107791,5.1466551 0.00750676818,4.25882388 0.000861767844,3.7159069 C-0.00224771205,3.46185282 -0.00224771205,3.08301517 0.0979315644,2.78185427 C0.45812155,1.6990441 1.63420414,0.331113358 4.79984745,1.35872026 C5.23835332,1.50106467 4.44994313,1.50106467 4.48174244,1.54455241 C2.58871976,1.3921839 1.60723848,2.11596873 1.53729861,3.7159069 C1.44719452,5.77711983 3.79660309,7.1517989 6.15693155,4.61723184 C6.31742139,4.4448947 6.54055343,4.2318733 6.69958992,4.02219347 C6.79507502,3.89630224 6.91024747,3.73613515 7.04282794,3.62242427 C7.18173834,3.50328438 7.33830928,3.43009273 7.44616516,3.27358335 C7.59633975,3.05566541 7.71566072,2.91087043 7.81062767,2.82267712 C7.86770893,2.7308458 7.91801743,2.65695626 7.96177091,2.60032142 C8.5879763,1.78975627 9.16033341,1.27066708 9.542022,0.984363254 C10.3755888,0.359106484 11.2099081,0.0700457385 12.1036382,0.00801643662 C13.4794188,-0.0874695606 14.735411,0.683058073 15.3641226,1.62581035 Z" id="形状结合" fill="url(#linearGradient-1)"></path>
                    <path d="M3.57916931,0 C5.05807652,0 6.71527579,1.09548783 8.55076712,3.28646349 C8.5502441,3.2875089 8.54972153,3.28855354 8.54919941,3.28959742 C11.7461828,6.69923924 14.2299808,7.12432938 15.9999999,4.56526698 C15.9785813,4.66171173 15.9612423,4.7310627 15.947983,4.77331989 C15.8914465,4.95349989 15.8290888,5.08911974 15.7782516,5.18448306 C14.9690476,6.70243655 13.852318,7.48208323 12.5413102,7.5275951 C11.0632974,7.57890444 9.36864199,6.5415797 7.45734392,4.41562088 L7.45734392,4.41562088 L7.25912902,4.19094109 C4.25796689,0.838387392 1.83825722,0.387638561 0,2.8386946 C0.0602758298,2.65913247 0.11244652,2.52839897 0.15651207,2.44649411 C1.03751839,0.808963124 2.20347486,0 3.57916931,0 Z" id="形状结合" fill="url(#linearGradient-2)"></path>
                </g>
            </g>
        </g>
    </g>
</svg>