<svg id="图层_1" data-name="图层 1" xmlns="http://www.w3.org/2000/svg" viewBox="0 0 535.07 223.62"><defs><style>.cls-1{fill:#2116e5;}.cls-2{fill:#373e4f;}</style></defs><path class="cls-1" d="M302.77,493.59c0,4.65-4.19,8.42-9.36,8.42H265.27V485.16h28.14C298.58,485.16,302.77,488.94,302.77,493.59ZM395.84,502A111.81,111.81,0,1,1,284,390.21,111.81,111.81,0,0,1,395.84,502ZM325,525c9.37-7.71,15.28-18.75,15.28-31.07,0-23.27-21-42.15-46.89-42.15H227.75V552.33h37.52V536.07H293.7l9.8,16.26h36.8Z" transform="translate(-172.22 -390.21)"/><path class="cls-1" d="M617.12,462.72h26.65c4.9,0,8.87-3.46,8.87-7.74s-3.95-7.73-8.87-7.73H617.12Z" transform="translate(-172.22 -390.21)"/><path class="cls-2" d="M462.83,408.84H514a33.83,33.83,0,0,1,17.33,4.61A34.29,34.29,0,0,1,543.85,426a33.79,33.79,0,0,1,4.62,17.33,33.44,33.44,0,0,1-5.87,19.27,34.29,34.29,0,0,1-15.4,12.64l22.66,30.27H522.21l-20.72-27.66h-16.6v27.66H462.77Zm51.12,47a11.86,11.86,0,0,0,8.83-3.64A12.4,12.4,0,0,0,514,431h-29v24.87Z" transform="translate(-172.22 -390.21)"/><path class="cls-2" d="M598.77,467.54v15.89h53.87v22.12h-76V408.84h76V431H598.77v15.88" transform="translate(-172.22 -390.21)"/><path class="cls-2" d="M685.16,408.84h22.13v96.69H685.16Z" transform="translate(-172.22 -390.21)"/><path class="cls-2" d="M538,557.36a37.83,37.83,0,0,1-6.54,21.32l-.21.31A37.61,37.61,0,0,1,500.4,595.2H462.77V549.53l18.79,18.79v8H500.4c.41,0,.83,0,1.23,0a18.74,18.74,0,0,0,14.23-8.09l.1-.14a19.1,19.1,0,0,0-.05-21.45.13.13,0,0,1,0-.05l0,0a18.84,18.84,0,0,0-15.46-8.13H481.56v21.36L462.77,541V519.52H500.4a37.59,37.59,0,0,1,30.88,16.22l.11.15A37.8,37.8,0,0,1,538,557.36Z" transform="translate(-172.22 -390.21)"/><path class="cls-2" d="M571.41,541.91,582.35,560,561,595.2H539.09Zm61.2,53.29H610.69l-4.54-7.49L575,536.07l10.89-18Z" transform="translate(-172.22 -390.21)"/><path class="cls-2" d="M680.64,572.84,694,586.2l-1.35,1a37.84,37.84,0,0,1-53.1-53.1l1.05-1.35L654,546.16l-.65,1a19.07,19.07,0,0,0,26.3,26.3Zm26.65-15.48a37.49,37.49,0,0,1-7.95,23.21l-1.05,1.35-13.37-13.36.65-1a19.07,19.07,0,0,0-26.3-26.3l-1,.65-13.37-13.36,1.36-1a37.84,37.84,0,0,1,61,29.89Z" transform="translate(-172.22 -390.21)"/></svg>