<svg width="536" height="224" viewBox="0 0 536 224" fill="none" xmlns="http://www.w3.org/2000/svg">
<g clip-path="url(#clip0_7_2)">
<path d="M130.55 103.38C130.55 108.03 126.36 111.8 121.19 111.8H93.05V94.95H121.19C126.36 94.95 130.55 98.73 130.55 103.38ZM223.62 111.79C223.624 133.904 217.071 155.522 204.788 173.911C192.506 192.3 175.047 206.634 154.619 215.1C134.19 223.567 111.71 225.786 90.0202 221.476C68.3307 217.167 48.4062 206.522 32.7661 190.889C17.126 175.256 6.47273 155.336 2.15351 133.649C-2.16571 111.961 0.0430498 89.4799 8.5005 69.0476C16.9579 48.6153 31.2842 31.1497 49.6678 18.8594C68.0513 6.56903 89.6665 0.00592245 111.78 -1.12333e-05C126.464 -0.00395135 141.005 2.88454 154.572 8.50051C168.14 14.1165 180.469 22.3499 190.854 32.7307C201.239 43.1115 209.478 55.4363 215.1 69.0014C220.722 82.5664 223.617 97.1061 223.62 111.79ZM152.78 134.79C162.15 127.08 168.06 116.04 168.06 103.72C168.06 80.45 147.06 61.57 121.17 61.57H55.53V162.12H93.05V145.86H121.48L131.28 162.12H168.08L152.78 134.79Z" fill="white"/>
<path d="M444.9 72.51H471.55C476.45 72.51 480.42 69.05 480.42 64.77C480.42 60.49 476.47 57.04 471.55 57.04H444.9V72.51Z" fill="white"/>
<path d="M290.61 18.63H341.78C347.866 18.5798 353.853 20.1724 359.11 23.24C364.311 26.2536 368.629 30.5816 371.63 35.79C374.703 41.045 376.299 47.0326 376.25 53.12C376.321 59.994 374.271 66.7227 370.38 72.39C366.611 78.0346 361.251 82.4337 354.98 85.03L377.64 115.3H349.99L329.27 87.64H312.67V115.3H290.55L290.61 18.63ZM341.73 65.63C343.374 65.6685 345.008 65.3647 346.528 64.7381C348.048 64.1115 349.421 63.1757 350.56 61.99C352.306 60.2568 353.497 58.0435 353.981 55.6316C354.466 53.2196 354.222 50.7181 353.28 48.4453C352.339 46.1724 350.743 44.2309 348.695 42.8677C346.647 41.5045 344.24 40.7813 341.78 40.79H312.78V65.66L341.73 65.63Z" fill="white"/>
<path d="M426.55 77.33V93.22H480.42V115.34H404.42V18.63H480.42V40.79H426.55V56.67" fill="white"/>
<path d="M512.94 18.63H535.07V115.32H512.94V18.63Z" fill="white"/>
<path d="M365.78 167.15C365.792 174.752 363.513 182.182 359.24 188.47L359.03 188.78C355.577 193.77 350.968 197.851 345.596 200.674C340.224 203.496 334.249 204.977 328.18 204.99H290.55V159.32L309.34 178.11V186.11H328.18C328.59 186.11 329.01 186.11 329.41 186.11C332.239 185.926 334.99 185.102 337.455 183.701C339.92 182.299 342.035 180.357 343.64 178.02L343.74 177.88C345.88 174.711 347.019 170.972 347.011 167.147C347.002 163.323 345.845 159.589 343.69 156.43C343.687 156.413 343.687 156.397 343.69 156.38V156.38C341.961 153.877 339.651 151.831 336.959 150.415C334.267 148.999 331.272 148.256 328.23 148.25H309.34V169.61L290.55 150.79V129.31H328.18C334.255 129.317 340.237 130.797 345.615 133.621C350.993 136.446 355.607 140.532 359.06 145.53L359.17 145.68C363.498 152.001 365.803 159.489 365.78 167.15V167.15Z" fill="white"/>
<path d="M399.19 151.7L410.13 169.79L388.78 204.99H366.87L399.19 151.7ZM460.39 204.99H438.47L433.93 197.5L402.78 145.86L413.67 127.86L460.39 204.99Z" fill="white"/>
<path d="M508.42 182.63L521.78 195.99L520.43 196.99C513.15 202.651 504.053 205.459 494.848 204.886C485.644 204.312 476.965 200.397 470.444 193.876C463.923 187.355 460.008 178.676 459.434 169.472C458.861 160.267 461.669 151.17 467.33 143.89L468.38 142.54L481.78 155.95L481.13 156.95C478.825 160.609 477.832 164.942 478.314 169.239C478.795 173.536 480.723 177.542 483.78 180.6C486.838 183.657 490.844 185.585 495.141 186.066C499.438 186.548 503.771 185.555 507.43 183.25L508.42 182.63ZM535.07 167.15C535.098 175.559 532.298 183.734 527.12 190.36L526.07 191.71L512.7 178.35L513.35 177.35C515.655 173.691 516.648 169.358 516.166 165.061C515.685 160.764 513.757 156.758 510.699 153.7C507.642 150.643 503.636 148.715 499.339 148.234C495.042 147.752 490.708 148.745 487.05 151.05L486.05 151.7L472.68 138.34L474.04 137.34C479.633 133.011 486.328 130.336 493.365 129.619C500.402 128.903 507.499 130.172 513.85 133.285C520.202 136.397 525.554 141.227 529.299 147.227C533.045 153.227 535.033 160.157 535.04 167.23L535.07 167.15Z" fill="white"/>
</g>
<defs>
<clipPath id="clip0_7_2">
<rect width="535.07" height="223.62" fill="white"/>
</clipPath>
</defs>
</svg>
