<svg id="图层_1" data-name="图层 1" xmlns="http://www.w3.org/2000/svg" viewBox="0 0 499.37 499.37"><defs><style>.cls-1{fill:#2116e5;}</style></defs><path class="cls-1" d="M561.16,503.85c0,10.39-9.37,18.81-20.92,18.81H477.4V485h62.84C551.81,485,561.16,493.46,561.16,503.85ZM769,522.69c0,137.9-111.79,249.68-249.68,249.68S269.61,660.59,269.61,522.69,381.4,273,519.3,273,769,384.79,769,522.69ZM610.83,574C631.76,556.74,645,532.07,645,504.57c0-52-46.88-94.12-104.72-94.12H393.63V634.93h83.79V598.71l63.47,0,21.89,36.25H645Z" transform="translate(-269.61 -273)"/></svg>