<?xml version="1.0" encoding="UTF-8"?>
<svg width="16px" height="16px" viewBox="0 0 16 16" version="1.1" xmlns="http://www.w3.org/2000/svg" xmlns:xlink="http://www.w3.org/1999/xlink">
    <title>形状</title>
    <g id="白" stroke="none" stroke-width="1" fill="none" fill-rule="evenodd">
        <g id="-Voting新增单个节点主页-w" transform="translate(-575.000000, -237.000000)" fill="#6979F8" fill-rule="nonzero">
            <g id="编组-3" transform="translate(300.000000, 160.000000)">
                <g id="形状-3" transform="translate(275.000000, 77.000000)">
                    <path d="M10.6356029,11.4550341 L11.9767345,5.42636105 C12.0314746,5.17117912 11.9995429,4.98849206 11.8809394,4.87829986 C11.7623359,4.76810766 11.6057185,4.7478091 11.4110872,4.81740417 L3.52851745,7.71429901 C3.35213279,7.77809449 3.23200875,7.85058935 3.16814535,7.9317836 C3.10428195,8.01297785 3.09667916,8.08982241 3.14533698,8.16231729 C3.1939948,8.23481216 3.29131048,8.29135816 3.43728402,8.33195527 L5.45354317,8.93221275 L10.1338189,6.12231176 C10.2615458,6.04111751 10.3588614,6.02371874 10.425766,6.07011545 C10.4683416,6.0991134 10.4561771,6.14261032 10.3892726,6.20060622 L6.60308459,9.46287517 L6.45711107,11.4463347 C6.59700236,11.4463347 6.73385252,11.3825392 6.86766157,11.2549483 L7.85298279,10.3502123 L9.89661198,11.7856107 C10.2858747,11.9943959 10.532205,11.8842037 10.6356029,11.4550341 L10.6356029,11.4550341 Z M16,8 C16,9.08333333 15.7886905,10.1190476 15.3660714,11.1071429 C14.9434524,12.0952381 14.375,12.9464286 13.6607143,13.6607143 C12.9464286,14.375 12.0952381,14.9434524 11.1071429,15.3660714 C10.1190476,15.7886905 9.08333333,16 8,16 C6.91666667,16 5.88095238,15.7886905 4.89285714,15.3660714 C3.9047619,14.9434524 3.05357143,14.375 2.33928572,13.6607143 C1.62500001,12.9464286 1.05654763,12.0952381 0.633928578,11.1071429 C0.211309526,10.1190476 0,9.08333333 0,8 C0,6.91666667 0.211309526,5.88095238 0.633928578,4.89285714 C1.05654763,3.9047619 1.62500001,3.05357143 2.33928572,2.33928572 C3.05357143,1.62500001 3.9047619,1.05654763 4.89285714,0.633928578 C5.88095238,0.211309526 6.91666667,0 8,0 C9.08333333,0 10.1190476,0.211309526 11.1071429,0.633928578 C12.0952381,1.05654763 12.9464286,1.62500001 13.6607143,2.33928572 C14.375,3.05357143 14.9434524,3.9047619 15.3660714,4.89285714 C15.7886905,5.88095238 16,6.91666667 16,8 Z" id="形状"></path>
                </g>
            </g>
        </g>
    </g>
</svg>