<?xml version="1.0" encoding="UTF-8"?>
<svg width="16px" height="16px" viewBox="0 0 16 16" version="1.1" xmlns="http://www.w3.org/2000/svg" xmlns:xlink="http://www.w3.org/1999/xlink">
    <title>twitter</title>
    <g id="白" stroke="none" stroke-width="1" fill="none" fill-rule="evenodd">
        <g id="-Voting新增单个节点主页-w" transform="translate(-549.000000, -237.000000)" fill="#6979F8">
            <g id="编组-3" transform="translate(300.000000, 160.000000)">
                <g id="twitter-2" transform="translate(249.000000, 77.000000)">
                    <path d="M8,0 C12.418278,0 16,3.581722 16,8 C16,12.418278 12.418278,16 8,16 C3.581722,16 0,12.418278 0,8 C0,3.581722 3.581722,0 8,0 Z M10.3168765,4.44444444 C9.77186721,4.44792303 9.25144006,4.66135786 8.87394619,5.03626366 C8.49646257,5.41115968 8.29396436,5.91568197 8.31244968,6.43512505 C8.31089215,6.591769 8.3273076,6.74807095 8.36132714,6.90132424 C6.71754832,6.78433229 5.2098169,5.98709074 4.2351265,4.71949718 C4.0571285,5.03294141 3.9646712,5.38405406 3.96622872,5.7404823 C3.96002938,6.41340342 4.29049022,7.04888087 4.855983,7.45144926 C4.53457013,7.43557087 4.22223596,7.34427748 3.94665724,7.18571836 L3.94665724,7.23232753 C3.92595861,8.17777061 4.59325382,9.01142986 5.55509468,9.24166157 C5.38093926,9.28280858 5.20149646,9.30006472 5.02221761,9.29292189 C4.89545386,9.29303915 4.76908973,9.27895868 4.64576892,9.25097364 C4.8826453,10.0613869 5.63702847,10.6361357 6.51821639,10.6775563 C5.82527331,11.2329089 4.94960845,11.5382332 4.04444291,11.5400213 C3.88101593,11.5405197 3.71774266,11.5311685 3.55555556,11.5120461 C4.45788272,12.1127181 5.53023583,12.4378781 6.63065505,12.4444444 C10.3168765,12.4304715 12.3555586,9.37216725 12.3555586,6.71482893 L12.3555586,6.45843941 C12.7417316,6.17354696 13.072633,5.82644055 13.3333333,5.43280314 C12.968566,5.587571 12.581143,5.68818622 12.1844465,5.73117024 C12.6053665,5.47982271 12.914975,5.0900352 13.0546601,4.63560067 C12.6633227,4.86163072 12.2329141,5.01950585 11.7835386,5.10179986 C11.4146111,4.69415039 10.8814471,4.45517335 10.3168765,4.44444444 Z" id="twitter"></path>
                </g>
            </g>
        </g>
    </g>
</svg>