<?xml version="1.0" encoding="UTF-8"?>
<svg width="24px" height="24px" viewBox="0 0 24 24" version="1.1" xmlns="http://www.w3.org/2000/svg" xmlns:xlink="http://www.w3.org/1999/xlink">
    <title>pingtai</title>
    <g id="页面-1" stroke="none" stroke-width="1" fill="none" fill-rule="evenodd">
        <g id="Validator-验证者详情" transform="translate(-387.000000, -601.000000)">
            <g id="pingtai" transform="translate(387.000000, 601.000000)">
                <rect id="Rectangle-11" fill="#D8D8D8" opacity="0" x="0" y="0" width="24" height="24"></rect>
                <path d="M19,4 C20.1045695,4 21,4.8954305 21,6 L21,15 C21,16.1045695 20.1045695,17 19,17 L12.5,17 L12.5,18 L14.75,18 C15.1642136,18 15.5,18.3357864 15.5,18.75 C15.5,19.1642136 15.1642136,19.5 14.75,19.5 L8.75,19.5 C8.33578644,19.5 8,19.1642136 8,18.75 C8,18.3357864 8.33578644,18 8.75,18 L11,18 L11,17 L5,17 C3.8954305,17 3,16.1045695 3,15 L3,6 C3,4.8954305 3.8954305,4 5,4 L19,4 Z M19,5.5 L5,5.5 C4.72385763,5.5 4.5,5.72385763 4.5,6 L4.5,15 C4.5,15.2761424 4.72385763,15.5 5,15.5 L19,15.5 C19.2761424,15.5 19.5,15.2761424 19.5,15 L19.5,6 C19.5,5.72385763 19.2761424,5.5 19,5.5 Z" id="Combined-Shape" fill="#858EA0" fill-rule="nonzero"></path>
                <path d="M12.0224327,15 C12.2985751,15 12.5224327,14.7761424 12.5224327,14.5 C12.5224327,14.2238576 12.2985751,14 12.0224327,14 C11.7462903,14 11.5224327,14.2238576 11.5224327,14.5 C11.5224327,14.7761424 11.7462903,15 12.0224327,15 Z" id="Oval-8" fill="#858EA0"></path>
            </g>
        </g>
    </g>
</svg>